<svg width="24" height="24" viewBox="0 0 24 24" fill="none" xmlns="http://www.w3.org/2000/svg">
  <style>
    @media (prefers-color-scheme: dark) {
      rect { fill-opacity: 0; }
      path { stroke: white; }
    }
  </style>
<rect width="24" height="24" transform="matrix(-1 0 0 1 24 0)" fill="white"/>
<path d="M15.5 14L20.3564 14C20.4658 14.0008 20.5737 13.9722 20.6696 13.9171C20.7655 13.8619 20.8461 13.7819 20.9039 13.6849C20.9616 13.5879 20.9945 13.477 20.9994 13.3629C21.0042 13.2488 20.9809 13.1353 20.9316 13.0333L20.249 11.6153C20.1598 11.4297 20.1134 11.2249 20.1135 11.0173V5.33333C20.1135 4.97971 19.9788 4.64057 19.739 4.39052C19.4993 4.14048 19.1741 4 18.8351 4H11.1649C10.8259 4 10.5007 4.14048 10.261 4.39052C10.0212 4.64057 9.88654 4.97971 9.88654 5.33333V7.68736" stroke="black" stroke-linecap="round" stroke-linejoin="round"/>
<path d="M20 11L15.5 11" stroke="black" stroke-linecap="round" stroke-linejoin="round"/>
<path d="M12.8351 9C13.1741 9 13.4993 9.14048 13.739 9.39052C13.9788 9.64057 14.1135 9.97971 14.1135 10.3333V16.0173C14.1134 16.2249 14.1598 16.4297 14.249 16.6153L14.9316 18.0333C14.9809 18.1353 15.0042 18.2488 14.9994 18.3629C14.9945 18.477 14.9616 18.5879 14.9039 18.6849C14.8461 18.7819 14.7655 18.8619 14.6696 18.9171C14.5737 18.9722 14.4659 19.0008 14.3564 19H3.64365C3.53415 19.0008 3.42629 18.9722 3.33041 18.9171C3.23453 18.8619 3.15385 18.7819 3.09611 18.6849C3.03836 18.5879 3.00548 18.477 3.00063 18.3629C2.99577 18.2488 3.0191 18.1353 3.06838 18.0333L3.75103 16.6153C3.84022 16.4297 3.88662 16.2249 3.88654 16.0173V10.3333C3.88654 9.97971 4.02122 9.64057 4.26096 9.39052C4.5007 9.14048 4.82586 9 5.1649 9H12.8351Z" stroke="black" stroke-linecap="round" stroke-linejoin="round"/>
<path d="M14 16H3.88699" stroke="black" stroke-linecap="round" stroke-linejoin="round"/>
</svg>
